# xmcd
# 
# Track frame offsets:
#     150
#     16925
#     38155
#     72977
# 
# Disc length: 1618
# 
# Revision: 1
# Processed by: cddbd v1.5.2PL0 Copyright (c) Steve Scherf et al.
# Submitted via: fre:ac v1.0.31
# 
DISCID=2b065004
DTITLE=Allure - All Cried Out
DYEAR=1997
DGENRE=R&B
TTITLE0=All Cried Out [Edit]
TTITLE1=All Cried Out [Radio Mix]
TTITLE2=All Cried Out [Dub Mix]
TTITLE3=All Cried Out [Main Club Pass]
EXTD=
EXTT0=
EXTT1=
EXTT2=
EXTT3=
PLAYORDER=
